<?xml version="1.0" standalone="no"?>
<!DOCTYPE svg PUBLIC "-//W3C//DTD SVG 20010904//EN"
 "http://www.w3.org/TR/2001/REC-SVG-20010904/DTD/svg10.dtd">
<svg version="1.0" xmlns="http://www.w3.org/2000/svg"
 width="663.000000pt" height="662.000000pt" viewBox="0 0 663.000000 662.000000"
 preserveAspectRatio="xMidYMid meet">

<g transform="translate(0.000000,662.000000) scale(0.100000,-0.100000)"
fill="#000000" stroke="none">
<path d="M40 6590 c-20 -20 -20 -33 -20 -3280 0 -3247 0 -3260 20 -3280 20
-20 33 -20 3280 -20 3247 0 3260 0 3280 20 20 20 20 33 20 3280 0 3247 0 3260
-20 3280 -20 20 -33 20 -3280 20 -3247 0 -3260 0 -3280 -20z m3722 -517 c233
-142 787 -479 1232 -749 454 -276 813 -500 817 -510 10 -25 10 -2983 0 -3008
-7 -19 -83 -66 -1591 -980 -917 -557 -882 -536 -904 -536 -13 0 -387 226
-2130 1285 -193 117 -353 221 -357 231 -11 28 -11 2978 0 3006 7 16 141 103
443 286 238 144 791 480 1228 746 437 267 805 485 817 485 12 1 212 -115 445
-256z"/>
<path d="M2951 5975 c-168 -102 -308 -188 -313 -193 -7 -7 560 -360 607 -378
13 -5 15 36 15 375 0 210 -1 381 -2 381 -2 0 -140 -83 -307 -185z"/>
<path d="M3380 5780 c0 -324 2 -381 14 -377 8 3 150 88 315 188 234 142 299
185 289 194 -10 9 -565 347 -610 372 -5 2 -8 -168 -8 -377z"/>
<path d="M2122 5473 c-244 -150 -301 -188 -290 -198 10 -9 571 -351 611 -372
4 -2 7 167 7 376 0 299 -3 381 -12 380 -7 0 -149 -84 -316 -186z"/>
<path d="M2570 5280 l0 -382 23 14 c12 8 154 95 315 192 161 98 292 180 290
181 -8 7 -605 368 -615 372 -10 4 -13 -75 -13 -377z"/>
<path d="M3748 5472 c-169 -102 -304 -190 -300 -193 5 -5 523 -322 615 -376 4
-2 7 167 7 376 0 210 -3 381 -7 381 -5 0 -146 -85 -315 -188z"/>
<path d="M4190 5281 l0 -382 22 12 c51 27 584 353 596 364 11 10 -46 48 -285
193 -164 99 -306 184 -316 188 -16 6 -17 -18 -17 -375z"/>
<path d="M1320 4985 c-168 -102 -306 -189 -308 -193 -2 -7 607 -382 622 -382
3 0 6 171 6 380 0 209 -3 380 -7 380 -5 0 -145 -84 -313 -185z"/>
<path d="M1760 4790 l0 -382 43 25 c211 124 572 349 572 357 0 8 -361 233
-572 357 l-43 25 0 -382z"/>
<path d="M2938 4982 c-169 -103 -307 -189 -308 -192 0 -5 601 -371 621 -378 5
-2 9 155 9 377 0 210 -3 381 -7 380 -5 0 -146 -84 -315 -187z"/>
<path d="M3380 4790 c0 -222 4 -380 9 -378 20 7 620 373 620 378 0 5 -600 371
-620 378 -5 2 -9 -161 -9 -378z"/>
<path d="M4570 4985 c-168 -102 -305 -190 -305 -195 0 -5 137 -93 305 -195
l305 -185 3 190 c1 104 1 276 0 380 l-3 190 -305 -185z"/>
<path d="M5000 4790 c0 -209 3 -380 6 -380 11 0 624 374 624 380 0 6 -613 380
-624 380 -3 0 -6 -171 -6 -380z"/>
<path d="M2141 4495 c-167 -101 -308 -188 -313 -193 -9 -9 590 -382 613 -382
5 0 9 150 9 380 0 209 -1 380 -3 380 -1 0 -139 -83 -306 -185z"/>
<path d="M2570 4300 c0 -310 2 -381 13 -377 13 5 565 338 600 362 16 11 -17
34 -273 189 -160 97 -302 184 -316 192 l-24 16 0 -382z"/>
<path d="M3773 4500 c-161 -97 -302 -184 -314 -191 -19 -13 0 -26 291 -203
171 -103 313 -186 316 -184 2 3 3 174 2 380 l-3 376 -292 -178z"/>
<path d="M4190 4301 c0 -218 4 -381 9 -381 5 0 147 84 316 186 246 150 304
189 293 199 -10 9 -563 346 -610 372 -5 2 -8 -167 -8 -376z"/>
<path d="M940 4295 c0 -240 4 -375 10 -375 15 0 615 367 615 376 0 10 -595
373 -612 374 -10 0 -13 -82 -13 -375z"/>
<path d="M5375 4487 c-165 -101 -299 -187 -298 -192 3 -11 598 -375 613 -375
6 0 10 135 10 375 0 293 -3 375 -12 375 -7 0 -148 -83 -313 -183z"/>
<path d="M1315 3995 c-165 -101 -301 -187 -302 -192 -3 -10 609 -382 620 -376
4 2 7 173 7 379 0 293 -3 374 -12 373 -7 0 -148 -83 -313 -184z"/>
<path d="M1760 3799 l0 -381 33 21 c17 11 157 96 309 188 153 93 277 172 275
177 -3 8 -601 376 -612 376 -3 0 -5 -171 -5 -381z"/>
<path d="M2937 3993 c-240 -146 -305 -189 -295 -198 10 -9 565 -347 611 -372
4 -2 7 167 7 376 0 210 -3 381 -7 381 -5 0 -147 -84 -316 -187z"/>
<path d="M3380 3800 c0 -209 3 -379 8 -377 65 37 601 363 610 372 10 9 -54 52
-289 194 -165 100 -307 185 -315 188 -12 4 -14 -53 -14 -377z"/>
<path d="M4566 3996 c-165 -100 -301 -187 -303 -192 -2 -5 122 -84 275 -177
152 -92 292 -177 310 -188 l32 -21 0 381 c0 210 -3 381 -7 380 -5 0 -143 -83
-307 -183z"/>
<path d="M5000 3806 c0 -206 3 -377 8 -379 8 -5 621 364 622 375 0 8 -607 378
-621 378 -5 0 -9 -148 -9 -374z"/>
<path d="M940 3309 c0 -325 2 -380 14 -376 26 10 611 367 613 375 3 7 -608
382 -621 382 -3 0 -6 -171 -6 -381z"/>
<path d="M2128 3502 c-169 -103 -308 -189 -308 -192 0 -6 614 -380 624 -380 3
0 6 171 6 380 0 209 -3 380 -7 379 -5 0 -146 -84 -315 -187z"/>
<path d="M2570 3310 c0 -210 4 -380 8 -378 32 13 612 371 612 378 0 5 -549
344 -612 377 -5 2 -8 -167 -8 -377z"/>
<path d="M3795 3529 c-143 -88 -282 -173 -309 -190 l-49 -30 313 -189 c172
-105 314 -190 316 -190 2 0 4 171 4 380 0 209 -3 380 -7 379 -5 0 -125 -72
-268 -160z"/>
<path d="M4190 3311 c0 -210 3 -381 6 -381 10 0 624 374 624 380 0 5 -601 371
-621 378 -5 2 -9 -155 -9 -377z"/>
<path d="M5378 3502 c-169 -103 -307 -190 -305 -194 2 -8 587 -365 613 -375
12 -4 14 51 14 376 0 210 -3 381 -7 381 -5 -1 -146 -85 -315 -188z"/>
<path d="M1320 3011 c-168 -102 -304 -191 -303 -196 2 -11 577 -364 606 -372
16 -5 17 17 17 370 0 207 -3 378 -7 380 -5 2 -145 -80 -313 -182z"/>
<path d="M1760 2819 c0 -301 3 -380 13 -376 10 4 607 365 615 372 1 1 -35 25
-80 52 -46 27 -188 113 -315 191 l-233 141 0 -380z"/>
<path d="M2951 3015 c-168 -102 -309 -189 -313 -193 -7 -7 558 -360 606 -378
15 -6 16 26 16 375 0 210 -1 381 -2 381 -2 0 -140 -83 -307 -185z"/>
<path d="M3380 2832 c0 -348 1 -370 18 -374 12 -3 125 60 308 171 159 97 292
180 294 185 4 7 -480 309 -602 377 -17 9 -18 -11 -18 -359z"/>
<path d="M4567 3009 c-170 -103 -310 -189 -312 -191 -2 -2 136 -88 306 -192
171 -103 312 -186 315 -184 2 3 3 174 2 380 l-3 374 -308 -187z"/>
<path d="M5005 3192 c-3 -3 -5 -174 -5 -380 0 -352 1 -374 18 -369 28 8 603
361 605 372 2 12 -609 385 -618 377z"/>
<path d="M940 2326 c0 -206 3 -377 8 -379 8 -5 621 364 622 375 0 7 -608 378
-621 378 -5 0 -9 -160 -9 -374z"/>
<path d="M2127 2514 c-168 -103 -304 -190 -302 -195 5 -6 595 -368 617 -377 4
-2 8 168 8 377 0 210 -4 381 -8 381 -4 0 -146 -84 -315 -186z"/>
<path d="M2570 2319 c0 -209 3 -378 8 -376 89 54 609 371 614 375 6 6 -600
382 -616 382 -3 0 -6 -171 -6 -381z"/>
<path d="M3748 2512 c-169 -103 -304 -190 -300 -194 4 -3 131 -81 282 -173
151 -92 290 -176 308 -187 l32 -20 0 381 c0 210 -3 381 -7 381 -5 0 -146 -85
-315 -188z"/>
<path d="M4190 2320 c0 -210 4 -380 8 -378 22 9 612 371 617 377 4 8 -566 361
-608 377 -16 6 -17 -20 -17 -376z"/>
<path d="M5375 2515 c-165 -101 -301 -187 -302 -192 -3 -10 609 -382 620 -376
4 2 7 173 7 379 0 293 -3 374 -12 373 -7 0 -148 -83 -313 -184z"/>
<path d="M1318 2022 c-170 -102 -308 -189 -308 -193 0 -6 587 -365 615 -375
13 -5 15 36 15 375 0 210 -3 381 -7 381 -5 0 -146 -85 -315 -188z"/>
<path d="M1760 1830 c0 -210 3 -379 8 -377 77 41 612 373 610 378 -2 7 -527
330 -600 370 -17 9 -18 -11 -18 -371z"/>
<path d="M2938 2022 c-169 -103 -307 -189 -308 -192 0 -5 601 -371 621 -378 5
-2 9 145 9 377 0 210 -3 381 -7 380 -5 0 -146 -85 -315 -187z"/>
<path d="M3380 1830 c0 -223 4 -380 9 -378 20 7 621 373 620 378 0 5 -600 371
-620 378 -5 2 -9 -168 -9 -378z"/>
<path d="M4570 2025 c-168 -102 -305 -190 -305 -195 0 -6 137 -93 305 -195
l305 -186 3 191 c1 104 1 275 0 380 l-3 190 -305 -185z"/>
<path d="M5000 1830 c0 -209 3 -380 8 -380 11 0 617 369 620 378 2 7 -608 382
-622 382 -3 0 -6 -171 -6 -380z"/>
<path d="M2141 1535 c-168 -102 -309 -189 -314 -194 -8 -8 592 -381 614 -381
5 0 9 150 9 380 0 209 -1 380 -2 380 -2 0 -140 -83 -307 -185z"/>
<path d="M2570 1340 c0 -310 2 -381 13 -377 13 5 565 338 600 362 16 11 -18
34 -275 190 -161 98 -303 185 -315 193 l-23 14 0 -382z"/>
<path d="M3773 1540 c-161 -97 -302 -184 -314 -191 -19 -13 0 -26 291 -203
171 -103 313 -186 316 -184 2 3 3 174 2 380 l-3 376 -292 -178z"/>
<path d="M4190 1341 c0 -231 4 -381 9 -381 6 0 148 84 316 186 246 150 304
189 293 199 -9 9 -542 333 -610 372 -5 2 -8 -167 -8 -376z"/>
<path d="M2937 1033 c-240 -146 -305 -189 -295 -198 10 -9 565 -347 611 -372
4 -2 7 167 7 376 0 210 -3 381 -7 381 -5 0 -147 -84 -316 -187z"/>
<path d="M3380 840 c0 -209 3 -379 8 -377 65 37 601 363 610 372 10 8 -55 52
-288 193 -165 100 -306 185 -315 188 -13 5 -15 -38 -15 -376z"/>
</g>
</svg>
